<svg width="36" height="36" viewBox="0 0 36 36" fill="none" xmlns="http://www.w3.org/2000/svg">
<mask id="mask0_1453_13806" style="mask-type:alpha" maskUnits="userSpaceOnUse" x="0" y="0" width="36" height="36">
<rect width="36" height="36" fill="#D9D9D9"/>
</mask>
<g mask="url(#mask0_1453_13806)">
<path d="M19.5 17.4V12C19.5 11.575 19.3563 11.2188 19.0688 10.9312C18.7813 10.6437 18.425 10.5 18 10.5C17.575 10.5 17.2188 10.6437 16.9313 10.9312C16.6438 11.2188 16.5 11.575 16.5 12V17.9625C16.5 18.1625 16.5375 18.3563 16.6125 18.5438C16.6875 18.7313 16.8 18.9 16.95 19.05L21.9 24C22.175 24.275 22.525 24.4125 22.95 24.4125C23.375 24.4125 23.725 24.275 24 24C24.275 23.725 24.4125 23.375 24.4125 22.95C24.4125 22.525 24.275 22.175 24 21.9L19.5 17.4ZM18 33C15.925 33 13.975 32.6062 12.15 31.8187C10.325 31.0312 8.7375 29.9625 7.3875 28.6125C6.0375 27.2625 4.96875 25.675 4.18125 23.85C3.39375 22.025 3 20.075 3 18C3 15.925 3.39375 13.975 4.18125 12.15C4.96875 10.325 6.0375 8.7375 7.3875 7.3875C8.7375 6.0375 10.325 4.96875 12.15 4.18125C13.975 3.39375 15.925 3 18 3C20.075 3 22.025 3.39375 23.85 4.18125C25.675 4.96875 27.2625 6.0375 28.6125 7.3875C29.9625 8.7375 31.0312 10.325 31.8187 12.15C32.6062 13.975 33 15.925 33 18C33 20.075 32.6062 22.025 31.8187 23.85C31.0312 25.675 29.9625 27.2625 28.6125 28.6125C27.2625 29.9625 25.675 31.0312 23.85 31.8187C22.025 32.6062 20.075 33 18 33Z" fill="#FFBA00"/>
</g>
</svg>
