<svg width="36" height="36" viewBox="0 0 36 36" fill="none" xmlns="http://www.w3.org/2000/svg">
<mask id="mask0_718_216" style="mask-type:alpha" maskUnits="userSpaceOnUse" x="0" y="0" width="36" height="36">
<rect width="36" height="36" fill="#D9D9D9"/>
</mask>
<g mask="url(#mask0_718_216)">
<path d="M16.2375 24.4875L23.1375 18.3375C23.3625 18.1375 23.425 17.9 23.325 17.625C23.225 17.35 23.025 17.1875 22.725 17.1375L17.325 16.6125L20.55 12.15C20.625 12.025 20.6688 11.9062 20.6813 11.7937C20.6938 11.6813 20.65 11.575 20.55 11.475C20.45 11.35 20.325 11.2938 20.175 11.3063C20.025 11.3188 19.8875 11.375 19.7625 11.475L12.9 17.625C12.675 17.825 12.6125 18.0625 12.7125 18.3375C12.8125 18.6125 13.0125 18.775 13.3125 18.825L18.7125 19.35L15.45 23.8125C15.375 23.9375 15.3375 24.0562 15.3375 24.1688C15.3375 24.2812 15.3875 24.3875 15.4875 24.4875C15.5875 24.5875 15.7063 24.6375 15.8438 24.6375C15.9812 24.6375 16.1125 24.5875 16.2375 24.4875ZM18 30C16.6 30 15.2812 29.7812 14.0438 29.3438C12.8063 28.9062 11.675 28.2875 10.65 27.4875L8.5875 29.55C8.4375 29.7 8.26875 29.8125 8.08125 29.8875C7.89375 29.9625 7.7 30 7.5 30C7.075 30 6.71875 29.8563 6.43125 29.5688C6.14375 29.2812 6 28.925 6 28.5C6 28.3 6.0375 28.1063 6.1125 27.9188C6.1875 27.7313 6.3 27.5625 6.45 27.4125L8.5125 25.35C7.7125 24.325 7.09375 23.1938 6.65625 21.9562C6.21875 20.7188 6 19.4 6 18C6 14.65 7.1625 11.8125 9.4875 9.4875C11.8125 7.1625 14.65 6 18 6H30V18C30 21.35 28.8375 24.1875 26.5125 26.5125C24.1875 28.8375 21.35 30 18 30Z" fill="#FFBA00"/>
</g>
</svg>
