<svg width="100" height="100" viewBox="0 0 100 100" fill="none" xmlns="http://www.w3.org/2000/svg">
<path d="M80.9167 85C72.8148 85 64.8102 83.2338 56.9028 79.7014C48.9954 76.169 41.8009 71.162 35.3194 64.6806C28.838 58.1991 23.831 51.0046 20.2986 43.0972C16.7662 35.1898 15 27.1852 15 19.0833C15 17.9167 15.3889 16.9444 16.1667 16.1667C16.9444 15.3889 17.9167 15 19.0833 15H34.8333C35.7407 15 36.5509 15.3079 37.2639 15.9236C37.9769 16.5394 38.3981 17.2685 38.5278 18.1111L41.0556 31.7222C41.1852 32.7593 41.1528 33.6343 40.9583 34.3472C40.7639 35.0602 40.4074 35.6759 39.8889 36.1944L30.4583 45.7222C31.7546 48.1204 33.294 50.4375 35.0764 52.6736C36.8588 54.9097 38.8194 57.0648 40.9583 59.1389C42.9676 61.1481 45.0741 63.0116 47.2778 64.7292C49.4815 66.4468 51.8148 68.0185 54.2778 69.4444L63.4167 60.3056C64 59.7222 64.7616 59.2847 65.7014 58.9931C66.6412 58.7014 67.5648 58.6204 68.4722 58.75L81.8889 61.4722C82.7963 61.7315 83.5417 62.2014 84.125 62.8819C84.7083 63.5625 85 64.3241 85 65.1667V80.9167C85 82.0833 84.6111 83.0556 83.8333 83.8333C83.0556 84.6111 82.0833 85 80.9167 85Z" fill="white"/>
</svg>
