<svg width="60" height="60" viewBox="0 0 60 60" fill="none" xmlns="http://www.w3.org/2000/svg">
<rect x="0.5" y="0.5" width="59" height="59" rx="29.5" stroke="#DEA202"/>
<mask id="mask0_932_879" style="mask-type:alpha" maskUnits="userSpaceOnUse" x="16" y="16" width="28" height="28">
<rect x="16" y="16" width="28" height="28" fill="#D9D9D9"/>
</mask>
<g mask="url(#mask0_932_879)">
<path d="M32.771 41.4625L25.3335 39.3625V28.8334H27.2002C27.3363 28.8334 27.4724 28.8479 27.6085 28.8771C27.7446 28.9063 27.8807 28.9403 28.0168 28.9792L36.096 31.9834C36.3682 32.0806 36.587 32.2556 36.7522 32.5084C36.9175 32.7611 37.0002 33.0236 37.0002 33.2959C37.0002 33.7042 36.8592 34.0348 36.5772 34.2875C36.2953 34.5403 35.9696 34.6667 35.6002 34.6667H32.5377C32.4404 34.6667 32.3675 34.6618 32.3189 34.6521C32.2703 34.6424 32.2071 34.6181 32.1293 34.5792L30.8168 34.0834C30.6613 34.025 30.5057 34.0348 30.3502 34.1125C30.1946 34.1903 30.0974 34.2973 30.0585 34.4334C30.0196 34.5889 30.0293 34.7348 30.0877 34.8709C30.146 35.007 30.2529 35.1042 30.4085 35.1625L32.1293 35.775C32.1682 35.7945 32.2266 35.8091 32.3043 35.8188C32.3821 35.8285 32.4502 35.8334 32.5085 35.8334H40.5002C41.1224 35.8334 41.6668 36.057 42.1335 36.5042C42.6002 36.9514 42.8335 37.5056 42.8335 38.1667L34.2293 41.4042C34.0349 41.482 33.7967 41.5257 33.5147 41.5354C33.2328 41.5452 32.9849 41.5209 32.771 41.4625ZM18.3335 39.3334V31.1667C18.3335 30.525 18.562 29.9757 19.0189 29.5188C19.4759 29.0618 20.0252 28.8334 20.6668 28.8334C21.3085 28.8334 21.8578 29.0618 22.3147 29.5188C22.7717 29.9757 23.0002 30.525 23.0002 31.1667V39.3334C23.0002 39.975 22.7717 40.5243 22.3147 40.9813C21.8578 41.4382 21.3085 41.6667 20.6668 41.6667C20.0252 41.6667 19.4759 41.4382 19.0189 40.9813C18.562 40.5243 18.3335 39.975 18.3335 39.3334ZM32.246 25.5959L38.0502 19.8209C38.2641 19.607 38.5314 19.4952 38.8522 19.4854C39.1731 19.4757 39.4502 19.5875 39.6835 19.8209C39.8974 20.0348 40.0043 20.307 40.0043 20.6375C40.0043 20.9681 39.8974 21.2403 39.6835 21.4542L33.0627 28.075C32.8293 28.3084 32.5571 28.425 32.246 28.425C31.9349 28.425 31.6627 28.3084 31.4293 28.075L28.1043 24.75C27.871 24.5167 27.7592 24.2445 27.7689 23.9334C27.7786 23.6223 27.9002 23.35 28.1335 23.1167C28.3668 22.9028 28.6391 22.791 28.9502 22.7813C29.2613 22.7716 29.5335 22.8834 29.7668 23.1167L32.246 25.5959Z" fill="#DEA202"/>
</g>
</svg>
