<svg width="60" height="60" viewBox="0 0 60 60" fill="none" xmlns="http://www.w3.org/2000/svg">
<rect x="0.5" y="0.5" width="59" height="59" rx="29.5" stroke="#DEA202"/>
<path d="M29.649 19.2729C29.8724 19.1753 30.1263 19.1753 30.3497 19.2729C34.6883 21.1685 38.8002 23.4858 42.6337 26.1729C42.9111 26.3673 43.0514 26.7045 42.9937 27.0383C42.9361 27.3721 42.6909 27.6427 42.3643 27.7328C41.5652 27.9534 40.7731 28.191 39.9881 28.4441C36.8018 29.4717 33.7347 30.7647 30.8126 32.297L30.8088 32.299C30.6763 32.3685 30.5441 32.4384 30.4122 32.5089C30.1546 32.6466 29.8452 32.6466 29.5875 32.5089C29.4544 32.4378 29.3209 32.3671 29.1872 32.297C27.7423 31.5393 26.2619 30.8401 24.7493 30.2026V29.9417C24.7493 29.7884 24.8279 29.6524 24.9496 29.5787C26.7056 28.5149 28.5169 27.5333 30.3781 26.6393C30.8137 26.4301 30.9972 25.9073 30.788 25.4717C30.5788 25.0361 30.056 24.8526 29.6204 25.0619C27.708 25.9805 25.8469 26.989 24.0428 28.082C23.5139 28.4024 23.1583 28.9269 23.0413 29.5145C22.0439 29.1308 21.0334 28.7734 20.0106 28.4436C19.2256 28.1904 18.4334 27.9534 17.6344 27.7328C17.3078 27.6427 17.0626 27.3721 17.005 27.0383C16.9473 26.7044 17.0876 26.3673 17.365 26.1729C21.1985 23.4858 25.3104 21.1685 29.649 19.2729Z" fill="#DEA302"/>
<path d="M31.2369 34.0524C34.0823 32.5321 37.0717 31.2468 40.1794 30.2224C40.336 31.873 40.436 33.54 40.4774 35.2215C40.4863 35.5822 40.2728 35.9114 39.9398 36.0505C36.6135 37.4392 33.4495 39.1398 30.4845 41.1157C30.1907 41.3115 29.8079 41.3115 29.5141 41.1157C26.5491 39.1398 23.3851 37.4392 20.0588 36.0505C19.7258 35.9114 19.5123 35.5822 19.5212 35.2215C19.5626 33.5399 19.6626 31.8728 19.8193 30.222C20.8938 30.5762 21.9541 30.9616 22.9993 31.377V32.8592C22.4762 33.1618 22.1243 33.7273 22.1243 34.3751C22.1243 34.9529 22.4044 35.4654 22.8362 35.7841C22.7318 36.2281 22.5772 36.6627 22.3725 37.0788C22.9006 37.3281 23.4243 37.5853 23.9432 37.8505C24.2388 37.2494 24.4531 36.6184 24.5861 35.9742C25.1978 35.7015 25.6243 35.0881 25.6243 34.3751C25.6243 33.7273 25.2723 33.1618 24.7493 32.8592V32.107C26.1159 32.7041 27.4546 33.3534 28.7628 34.0524C29.5358 34.4654 30.4639 34.4654 31.2369 34.0524Z" fill="#DEA302"/>
<path d="M21.2052 38.7061C21.6942 38.2171 22.0835 37.6663 22.3725 37.0788C22.9006 37.3281 23.4243 37.5853 23.9432 37.8505C23.5716 38.6063 23.0712 39.315 22.4426 39.9435C22.1009 40.2852 21.5469 40.2852 21.2052 39.9435C20.8635 39.6018 20.8635 39.0478 21.2052 38.7061Z" fill="#DEA302"/>
</svg>
