<svg width="60" height="60" viewBox="0 0 60 60" fill="none" xmlns="http://www.w3.org/2000/svg">
<rect x="0.5" y="0.5" width="59" height="59" rx="29.5" stroke="#DEA202"/>
<mask id="mask0_944_2115" style="mask-type:alpha" maskUnits="userSpaceOnUse" x="16" y="16" width="28" height="28">
<rect x="16" y="16" width="28" height="28" fill="#D9D9D9"/>
</mask>
<g mask="url(#mask0_944_2115)">
<path d="M29.9997 40.5C27.7247 40.5 25.7948 39.7076 24.2101 38.1229C22.6254 36.5381 21.833 34.6083 21.833 32.3333C21.833 30.5055 22.3726 28.8673 23.4518 27.4187C24.5309 25.9701 25.9455 24.993 27.6955 24.4875C27.0538 24.3319 26.4948 24.0548 26.0184 23.6562C25.542 23.2576 25.158 22.7763 24.8663 22.2125C24.5747 21.6486 24.3705 21.0361 24.2538 20.375C24.1372 19.7138 24.1177 19.043 24.1955 18.3625C24.9927 18.2652 25.7511 18.3138 26.4705 18.5083C27.19 18.7027 27.8413 19.0138 28.4247 19.4416C29.008 19.8694 29.4893 20.3847 29.8684 20.9875C30.2476 21.5902 30.4761 22.2708 30.5538 23.0291C30.8066 22.4263 31.1129 21.8576 31.4726 21.3229C31.8323 20.7881 32.2358 20.2972 32.683 19.85C32.8969 19.6361 33.1691 19.5291 33.4997 19.5291C33.8302 19.5291 34.1025 19.6361 34.3163 19.85C34.5302 20.0638 34.6372 20.3361 34.6372 20.6666C34.6372 20.9972 34.5302 21.2694 34.3163 21.4833C33.8886 21.9111 33.5094 22.3826 33.1788 22.8979C32.8483 23.4131 32.6052 23.9625 32.4497 24.5458C34.1608 25.0902 35.5413 26.077 36.5913 27.5062C37.6413 28.9354 38.1663 30.5444 38.1663 32.3333C38.1663 34.6083 37.374 36.5381 35.7893 38.1229C34.2045 39.7076 32.2747 40.5 29.9997 40.5Z" fill="#DEA202"/>
</g>
</svg>
