<svg width="36" height="35" viewBox="0 0 36 35" fill="none" xmlns="http://www.w3.org/2000/svg">
<rect width="36" height="35" rx="17.5" fill="white"/>
<path d="M13.0666 27H9.34676V14.3777H13.0666V27ZM11.1688 12.5731C9.96967 12.5731 9 11.5479 9 10.2859C9 9.02394 9.97093 8 11.1688 8C12.3642 8 13.3364 9.02527 13.3364 10.2859C13.3364 11.5479 12.3642 12.5731 11.1688 12.5731ZM27 27H23.2827V20.8617C23.2827 19.3976 23.2575 17.5146 21.3497 17.5146C19.4142 17.5146 19.1166 19.109 19.1166 20.7553V27H15.3993V14.3777H18.9678V16.1024H19.0182C19.515 15.1104 20.7281 14.0638 22.5375 14.0638C26.304 14.0638 27 16.6782 27 20.0771V27Z" fill="#1A614F"/>
</svg>
