<svg width="18" height="19" viewBox="0 0 18 19" fill="none" xmlns="http://www.w3.org/2000/svg">
<path d="M4.06655 19H0.34676V6.37766H4.06655V19ZM2.16883 4.57314C0.969668 4.57314 0 3.54787 0 2.2859C0 1.02394 0.970928 0 2.16883 0C3.3642 0 4.33639 1.02527 4.33639 2.2859C4.33639 3.54787 3.3642 4.57314 2.16883 4.57314ZM18 19H14.2827V12.8617C14.2827 11.3976 14.2575 9.51463 12.3497 9.51463C10.4142 9.51463 10.1166 11.109 10.1166 12.7553V19H6.3993V6.37766H9.96778V8.10239H10.0182C10.515 7.11037 11.7281 6.06383 13.5375 6.06383C17.304 6.06383 18 8.67819 18 12.0771V19Z" fill="#1A614F"/>
</svg>
