<svg width="60" height="60" viewBox="0 0 60 60" fill="none" xmlns="http://www.w3.org/2000/svg">
<rect x="0.5" y="0.5" width="59" height="59" rx="29.5" stroke="url(#paint0_linear_944_1977)"/>
<rect x="0.5" y="0.5" width="59" height="59" rx="29.5" stroke="url(#paint1_linear_944_1977)"/>
<rect x="8.5" y="8.5" width="43" height="43" rx="21.5" stroke="url(#paint2_linear_944_1977)"/>
<rect x="8.5" y="8.5" width="43" height="43" rx="21.5" stroke="url(#paint3_linear_944_1977)"/>
<mask id="mask0_944_1977" style="mask-type:alpha" maskUnits="userSpaceOnUse" x="18" y="18" width="24" height="24">
<rect x="18" y="18" width="24" height="24" fill="#D9D9D9"/>
</mask>
<g mask="url(#mask0_944_1977)">
<path d="M30.0497 40C29.0997 40 28.2581 39.7 27.5247 39.1C26.7914 38.5 26.3331 37.7333 26.1497 36.8C25.2664 37.0833 24.3747 37.0667 23.4747 36.75C22.5747 36.4333 21.8831 35.8833 21.3997 35.1C20.8997 34.3 20.7164 33.4125 20.8497 32.4375C20.9831 31.4625 21.4164 30.65 22.1497 30C21.4497 29.3667 21.0289 28.5833 20.8872 27.65C20.7456 26.7167 20.8997 25.85 21.3497 25.05C21.7997 24.25 22.4789 23.6708 23.3872 23.3125C24.2956 22.9542 25.1997 22.9167 26.0997 23.2C26.2831 22.2667 26.7414 21.5 27.4747 20.9C28.2081 20.3 29.0497 20 29.9997 20C30.9497 20 31.7914 20.3 32.5247 20.9C33.2581 21.5 33.7164 22.2667 33.8997 23.2C34.8331 22.9167 35.7372 22.9417 36.6122 23.275C37.4872 23.6083 38.1664 24.2 38.6497 25.05C39.0997 25.8833 39.2622 26.7542 39.1372 27.6625C39.0122 28.5708 38.5831 29.35 37.8497 30C38.5831 30.65 39.0206 31.4542 39.1622 32.4125C39.3039 33.3708 39.1497 34.2667 38.6997 35.1C38.2164 35.95 37.5372 36.5167 36.6622 36.8C35.7872 37.0833 34.8831 37.0833 33.9497 36.8C33.7664 37.7333 33.3081 38.5 32.5747 39.1C31.8414 39.7 30.9997 40 30.0497 40ZM29.9997 34C31.0997 34 32.0414 33.6083 32.8247 32.825C33.6081 32.0417 33.9997 31.1 33.9997 30C33.9997 28.9 33.6081 27.9583 32.8247 27.175C32.0414 26.3917 31.0997 26 29.9997 26C28.8997 26 27.9581 26.3917 27.1747 27.175C26.3914 27.9583 25.9997 28.9 25.9997 30C25.9997 31.1 26.3914 32.0417 27.1747 32.825C27.9581 33.6083 28.8997 34 29.9997 34Z" fill="#1A614F"/>
</g>
<defs>
<linearGradient id="paint0_linear_944_1977" x1="4.93903" y1="63.2927" x2="62.7439" y2="-4.02439" gradientUnits="userSpaceOnUse">
<stop stop-color="#1A614F"/>
<stop offset="0.323723" stop-color="#1A614F" stop-opacity="0"/>
</linearGradient>
<linearGradient id="paint1_linear_944_1977" x1="59.8171" y1="-7.68292" x2="4.93902" y2="60" gradientUnits="userSpaceOnUse">
<stop stop-color="#1A614F"/>
<stop offset="0.576615" stop-color="#1A614F" stop-opacity="0"/>
</linearGradient>
<linearGradient id="paint2_linear_944_1977" x1="3.20968" y1="10.4839" x2="51.8226" y2="52" gradientUnits="userSpaceOnUse">
<stop stop-color="#1A614F"/>
<stop offset="0.323723" stop-color="#1A614F" stop-opacity="0"/>
</linearGradient>
<linearGradient id="paint3_linear_944_1977" x1="60.6935" y1="61.9355" x2="9.59677" y2="25.7419" gradientUnits="userSpaceOnUse">
<stop stop-color="#1A614F"/>
<stop offset="0.576615" stop-color="#1A614F" stop-opacity="0"/>
</linearGradient>
</defs>
</svg>
