<svg width="60" height="60" viewBox="0 0 60 60" fill="none" xmlns="http://www.w3.org/2000/svg">
<rect x="0.5" y="0.5" width="59" height="59" rx="29.5" stroke="url(#paint0_linear_972_2879)"/>
<rect x="0.5" y="0.5" width="59" height="59" rx="29.5" stroke="url(#paint1_linear_972_2879)"/>
<rect x="8.5" y="8.5" width="43" height="43" rx="21.5" stroke="url(#paint2_linear_972_2879)"/>
<rect x="8.5" y="8.5" width="43" height="43" rx="21.5" stroke="url(#paint3_linear_972_2879)"/>
<path d="M29.9995 39.8824C24.5423 39.8824 20.1172 35.4573 20.1172 30H29.9995V39.8824Z" fill="#1A614F"/>
<path d="M20.1172 20.1177C25.5744 20.1177 29.9995 24.5428 29.9995 30H20.1172V20.1177Z" fill="#1A614F"/>
<path d="M30 39.8824C35.4573 39.8824 39.8824 35.4573 39.8824 30H30V39.8824Z" fill="#1A614F"/>
<path d="M39.8824 30C39.8824 24.5428 35.4573 20.1177 30 20.1177V30H39.8824Z" fill="#1A614F"/>
<defs>
<linearGradient id="paint0_linear_972_2879" x1="4.93903" y1="63.2927" x2="62.7439" y2="-4.02439" gradientUnits="userSpaceOnUse">
<stop stop-color="#1A614F"/>
<stop offset="0.323723" stop-color="#1A614F" stop-opacity="0"/>
</linearGradient>
<linearGradient id="paint1_linear_972_2879" x1="59.8171" y1="-7.68292" x2="4.93902" y2="60" gradientUnits="userSpaceOnUse">
<stop stop-color="#1A614F"/>
<stop offset="0.576615" stop-color="#1A614F" stop-opacity="0"/>
</linearGradient>
<linearGradient id="paint2_linear_972_2879" x1="3.20968" y1="10.4839" x2="51.8226" y2="52" gradientUnits="userSpaceOnUse">
<stop stop-color="#1A614F"/>
<stop offset="0.323723" stop-color="#1A614F" stop-opacity="0"/>
</linearGradient>
<linearGradient id="paint3_linear_972_2879" x1="60.6935" y1="61.9355" x2="9.59677" y2="25.7419" gradientUnits="userSpaceOnUse">
<stop stop-color="#1A614F"/>
<stop offset="0.576615" stop-color="#1A614F" stop-opacity="0"/>
</linearGradient>
</defs>
</svg>
