<svg width="60" height="60" viewBox="0 0 60 60" fill="none" xmlns="http://www.w3.org/2000/svg">
<rect x="0.5" y="0.5" width="59" height="59" rx="29.5" stroke="#DEA202"/>
<mask id="mask0_944_2123" style="mask-type:alpha" maskUnits="userSpaceOnUse" x="16" y="16" width="28" height="28">
<rect x="16" y="16" width="28" height="28" fill="#D9D9D9"/>
</mask>
<g mask="url(#mask0_944_2123)">
<path d="M28.8337 39.3334V34.6667H26.5003C24.8864 34.6667 23.5107 34.098 22.3732 32.9605C21.2357 31.823 20.667 30.4473 20.667 28.8334C20.667 27.6667 20.9878 26.5924 21.6295 25.6105C22.2712 24.6285 23.1364 23.9139 24.2253 23.4667C24.4003 22.0084 25.0371 20.7882 26.1357 19.8063C27.2344 18.8243 28.5225 18.3334 30.0003 18.3334C31.4781 18.3334 32.7663 18.8243 33.8649 19.8063C34.9635 20.7882 35.6003 22.0084 35.7753 23.4667C36.8642 23.9139 37.7295 24.6285 38.3712 25.6105C39.0128 26.5924 39.3337 27.6667 39.3337 28.8334C39.3337 30.4473 38.7649 31.823 37.6274 32.9605C36.4899 34.098 35.1142 34.6667 33.5003 34.6667H31.167V39.3334H37.0003C37.3309 39.3334 37.608 39.4452 37.8316 39.6688C38.0552 39.8924 38.167 40.1695 38.167 40.5C38.167 40.8306 38.0552 41.1077 37.8316 41.3313C37.608 41.5549 37.3309 41.6667 37.0003 41.6667H23.0003C22.6698 41.6667 22.3927 41.5549 22.1691 41.3313C21.9455 41.1077 21.8337 40.8306 21.8337 40.5C21.8337 40.1695 21.9455 39.8924 22.1691 39.6688C22.3927 39.4452 22.6698 39.3334 23.0003 39.3334H28.8337Z" fill="#DEA202"/>
</g>
</svg>
