<svg width="60" height="60" viewBox="0 0 60 60" fill="none" xmlns="http://www.w3.org/2000/svg">
<rect x="0.5" y="0.5" width="59" height="59" rx="29.5" stroke="url(#paint0_linear_944_1992)"/>
<rect x="0.5" y="0.5" width="59" height="59" rx="29.5" stroke="url(#paint1_linear_944_1992)"/>
<rect x="8.5" y="8.5" width="43" height="43" rx="21.5" stroke="url(#paint2_linear_944_1992)"/>
<rect x="8.5" y="8.5" width="43" height="43" rx="21.5" stroke="url(#paint3_linear_944_1992)"/>
<mask id="mask0_944_1992" style="mask-type:alpha" maskUnits="userSpaceOnUse" x="18" y="18" width="24" height="24">
<rect x="18" y="18" width="24" height="24" fill="#D9D9D9"/>
</mask>
<g mask="url(#mask0_944_1992)">
<path d="M28.567 38.8947V37.7895C28.567 37.4763 28.6724 37.2138 28.8832 37.002C29.0941 36.7901 29.3553 36.6842 29.667 36.6842C29.9787 36.6842 30.2399 36.7901 30.4507 37.002C30.6616 37.2138 30.767 37.4763 30.767 37.7895V38.8947C30.767 39.2079 30.6616 39.4704 30.4507 39.6822C30.2399 39.8941 29.9787 40 29.667 40C29.3553 40 29.0941 39.8941 28.8832 39.6822C28.6724 39.4704 28.567 39.2079 28.567 38.8947ZM19.767 27.8421H20.867C21.1787 27.8421 21.4399 27.948 21.6507 28.1599C21.8616 28.3717 21.967 28.6342 21.967 28.9474C21.967 29.2605 21.8616 29.523 21.6507 29.7349C21.4399 29.9467 21.1787 30.0526 20.867 30.0526H19.767C19.4553 30.0526 19.1941 29.9467 18.9832 29.7349C18.7724 29.523 18.667 29.2605 18.667 28.9474C18.667 28.6342 18.7724 28.3717 18.9832 28.1599C19.1941 27.948 19.4553 27.8421 19.767 27.8421ZM38.467 27.8421H39.567C39.8787 27.8421 40.1399 27.948 40.3507 28.1599C40.5616 28.3717 40.667 28.6342 40.667 28.9474C40.667 29.2605 40.5616 29.523 40.3507 29.7349C40.1399 29.9467 39.8787 30.0526 39.567 30.0526H38.467C38.1553 30.0526 37.8941 29.9467 37.6832 29.7349C37.4724 29.523 37.367 29.2605 37.367 28.9474C37.367 28.6342 37.4724 28.3717 37.6832 28.1599C37.8941 27.948 38.1553 27.8421 38.467 27.8421ZM35.497 36.9053L34.727 36.1316C34.5253 35.9289 34.4245 35.6711 34.4245 35.3579C34.4245 35.0447 34.5253 34.7868 34.727 34.5842C34.9287 34.3816 35.1853 34.2803 35.497 34.2803C35.8087 34.2803 36.0653 34.3816 36.267 34.5842L37.037 35.3579C37.2387 35.5605 37.3395 35.8184 37.3395 36.1316C37.3395 36.4447 37.2387 36.7026 37.037 36.9053C36.8353 37.1079 36.5787 37.2092 36.267 37.2092C35.9553 37.2092 35.6987 37.1079 35.497 36.9053ZM22.297 35.3579L23.067 34.5842C23.2687 34.3816 23.5253 34.2803 23.837 34.2803C24.1487 34.2803 24.4053 34.3816 24.607 34.5842C24.8087 34.7868 24.9095 35.0447 24.9095 35.3579C24.9095 35.6711 24.8087 35.9289 24.607 36.1316L23.837 36.9053C23.6353 37.1079 23.3787 37.2092 23.067 37.2092C22.7553 37.2092 22.4987 37.1079 22.297 36.9053C22.0953 36.7026 21.9945 36.4447 21.9945 36.1316C21.9945 35.8184 22.0953 35.5605 22.297 35.3579ZM29.667 34.4737C28.1453 34.4737 26.8482 33.9349 25.7757 32.8572C24.7032 31.7796 24.167 30.4763 24.167 28.9474C24.167 28.0632 24.3641 27.2388 24.7582 26.4743C25.1524 25.7099 25.6887 25.0605 26.367 24.5263V21.2105C26.367 20.6026 26.5824 20.0822 27.0132 19.6493C27.4441 19.2164 27.962 19 28.567 19H30.767C31.372 19 31.8899 19.2164 32.3207 19.6493C32.7516 20.0822 32.967 20.6026 32.967 21.2105V24.5263C33.6453 25.0605 34.1816 25.7099 34.5757 26.4743C34.9699 27.2388 35.167 28.0632 35.167 28.9474C35.167 30.4763 34.6307 31.7796 33.5582 32.8572C32.4857 33.9349 31.1887 34.4737 29.667 34.4737ZM28.567 23.5316C28.7503 23.4947 28.9337 23.4671 29.117 23.4487C29.3003 23.4303 29.4837 23.4211 29.667 23.4211C29.8503 23.4211 30.0337 23.4303 30.217 23.4487C30.4003 23.4671 30.5837 23.4947 30.767 23.5316V21.2105H28.567V23.5316ZM29.667 32.2632C30.5837 32.2632 31.3628 31.9408 32.0045 31.2961C32.6462 30.6513 32.967 29.8684 32.967 28.9474C32.967 28.0263 32.6462 27.2434 32.0045 26.5987C31.3628 25.9539 30.5837 25.6316 29.667 25.6316C28.7503 25.6316 27.9712 25.9539 27.3295 26.5987C26.6878 27.2434 26.367 28.0263 26.367 28.9474C26.367 29.8684 26.6878 30.6513 27.3295 31.2961C27.9712 31.9408 28.7503 32.2632 29.667 32.2632ZM29.667 32.2632C28.7503 32.2632 27.9712 31.9408 27.3295 31.2961C26.6878 30.6513 26.367 29.8684 26.367 28.9474C26.367 28.0263 26.6878 27.2434 27.3295 26.5987C27.9712 25.9539 28.7503 25.6316 29.667 25.6316C30.5837 25.6316 31.3628 25.9539 32.0045 26.5987C32.6462 27.2434 32.967 28.0263 32.967 28.9474C32.967 29.8684 32.6462 30.6513 32.0045 31.2961C31.3628 31.9408 30.5837 32.2632 29.667 32.2632Z" fill="#1A614F"/>
</g>
<defs>
<linearGradient id="paint0_linear_944_1992" x1="4.93903" y1="63.2927" x2="62.7439" y2="-4.02439" gradientUnits="userSpaceOnUse">
<stop stop-color="#1A614F"/>
<stop offset="0.323723" stop-color="#1A614F" stop-opacity="0"/>
</linearGradient>
<linearGradient id="paint1_linear_944_1992" x1="59.8171" y1="-7.68292" x2="4.93902" y2="60" gradientUnits="userSpaceOnUse">
<stop stop-color="#1A614F"/>
<stop offset="0.576615" stop-color="#1A614F" stop-opacity="0"/>
</linearGradient>
<linearGradient id="paint2_linear_944_1992" x1="3.20968" y1="10.4839" x2="51.8226" y2="52" gradientUnits="userSpaceOnUse">
<stop stop-color="#1A614F"/>
<stop offset="0.323723" stop-color="#1A614F" stop-opacity="0"/>
</linearGradient>
<linearGradient id="paint3_linear_944_1992" x1="60.6935" y1="61.9355" x2="9.59677" y2="25.7419" gradientUnits="userSpaceOnUse">
<stop stop-color="#1A614F"/>
<stop offset="0.576615" stop-color="#1A614F" stop-opacity="0"/>
</linearGradient>
</defs>
</svg>
