<svg width="60" height="60" viewBox="0 0 60 60" fill="none" xmlns="http://www.w3.org/2000/svg">
<rect x="0.5" y="0.5" width="59" height="59" rx="29.5" stroke="#DEA202"/>
<mask id="mask0_944_2098" style="mask-type:alpha" maskUnits="userSpaceOnUse" x="16" y="16" width="28" height="28">
<rect x="16" y="16" width="28" height="28" fill="#D9D9D9"/>
</mask>
<g mask="url(#mask0_944_2098)">
<path d="M39.333 25.3334V23H36.9997C36.6691 23 36.392 22.8882 36.1684 22.6646C35.9448 22.441 35.833 22.1639 35.833 21.8334C35.833 21.5028 35.9448 21.2257 36.1684 21.0021C36.392 20.7785 36.6691 20.6667 36.9997 20.6667H39.333C39.9747 20.6667 40.524 20.8952 40.9809 21.3521C41.4379 21.809 41.6663 22.3584 41.6663 23V25.3334C41.6663 25.6639 41.5545 25.941 41.3309 26.1646C41.1073 26.3882 40.8302 26.5 40.4997 26.5C40.1691 26.5 39.892 26.3882 39.6684 26.1646C39.4448 25.941 39.333 25.6639 39.333 25.3334ZM18.333 25.3334V23C18.333 22.3584 18.5615 21.809 19.0184 21.3521C19.4754 20.8952 20.0247 20.6667 20.6663 20.6667H22.9997C23.3302 20.6667 23.6073 20.7785 23.8309 21.0021C24.0545 21.2257 24.1663 21.5028 24.1663 21.8334C24.1663 22.1639 24.0545 22.441 23.8309 22.6646C23.6073 22.8882 23.3302 23 22.9997 23H20.6663V25.3334C20.6663 25.6639 20.5545 25.941 20.3309 26.1646C20.1073 26.3882 19.8302 26.5 19.4997 26.5C19.1691 26.5 18.892 26.3882 18.6684 26.1646C18.4448 25.941 18.333 25.6639 18.333 25.3334ZM39.333 39.3334H36.9997C36.6691 39.3334 36.392 39.2215 36.1684 38.9979C35.9448 38.7743 35.833 38.4972 35.833 38.1667C35.833 37.8361 35.9448 37.559 36.1684 37.3354C36.392 37.1118 36.6691 37 36.9997 37H39.333V34.6667C39.333 34.3361 39.4448 34.059 39.6684 33.8354C39.892 33.6118 40.1691 33.5 40.4997 33.5C40.8302 33.5 41.1073 33.6118 41.3309 33.8354C41.5545 34.059 41.6663 34.3361 41.6663 34.6667V37C41.6663 37.6417 41.4379 38.191 40.9809 38.6479C40.524 39.1049 39.9747 39.3334 39.333 39.3334ZM20.6663 39.3334C20.0247 39.3334 19.4754 39.1049 19.0184 38.6479C18.5615 38.191 18.333 37.6417 18.333 37V34.6667C18.333 34.3361 18.4448 34.059 18.6684 33.8354C18.892 33.6118 19.1691 33.5 19.4997 33.5C19.8302 33.5 20.1073 33.6118 20.3309 33.8354C20.5545 34.059 20.6663 34.3361 20.6663 34.6667V37H22.9997C23.3302 37 23.6073 37.1118 23.8309 37.3354C24.0545 37.559 24.1663 37.8361 24.1663 38.1667C24.1663 38.4972 24.0545 38.7743 23.8309 38.9979C23.6073 39.2215 23.3302 39.3334 22.9997 39.3334H20.6663ZM22.9997 32.3334V27.6667C22.9997 27.025 23.2281 26.4757 23.6851 26.0188C24.142 25.5618 24.6913 25.3334 25.333 25.3334H34.6663C35.308 25.3334 35.8573 25.5618 36.3143 26.0188C36.7712 26.4757 36.9997 27.025 36.9997 27.6667V32.3334C36.9997 32.975 36.7712 33.5243 36.3143 33.9813C35.8573 34.4382 35.308 34.6667 34.6663 34.6667H25.333C24.6913 34.6667 24.142 34.4382 23.6851 33.9813C23.2281 33.5243 22.9997 32.975 22.9997 32.3334Z" fill="#DEA202"/>
</g>
</svg>
