<svg width="48" height="48" viewBox="0 0 48 48" fill="none" xmlns="http://www.w3.org/2000/svg">
<mask id="mask0_718_306" style="mask-type:alpha" maskUnits="userSpaceOnUse" x="0" y="0" width="48" height="48">
<rect width="48" height="48" fill="#D9D9D9"/>
</mask>
<g mask="url(#mask0_718_306)">
<path d="M24 32C26.5 32 28.625 31.125 30.375 29.375C32.125 27.625 33 25.5 33 23C33 20.5 32.125 18.375 30.375 16.625C28.625 14.875 26.5 14 24 14C21.5 14 19.375 14.875 17.625 16.625C15.875 18.375 15 20.5 15 23C15 25.5 15.875 27.625 17.625 29.375C19.375 31.125 21.5 32 24 32ZM24 28.4C22.5 28.4 21.225 27.875 20.175 26.825C19.125 25.775 18.6 24.5 18.6 23C18.6 21.5 19.125 20.225 20.175 19.175C21.225 18.125 22.5 17.6 24 17.6C25.5 17.6 26.775 18.125 27.825 19.175C28.875 20.225 29.4 21.5 29.4 23C29.4 24.5 28.875 25.775 27.825 26.825C26.775 27.875 25.5 28.4 24 28.4ZM24 38C19.1333 38 14.7 36.6417 10.7 33.925C6.7 31.2083 3.8 27.5667 2 23C3.8 18.4333 6.7 14.7917 10.7 12.075C14.7 9.35833 19.1333 8 24 8C28.8667 8 33.3 9.35833 37.3 12.075C41.3 14.7917 44.2 18.4333 46 23C44.2 27.5667 41.3 31.2083 37.3 33.925C33.3 36.6417 28.8667 38 24 38ZM24 34C27.7667 34 31.225 33.0083 34.375 31.025C37.525 29.0417 39.9333 26.3667 41.6 23C39.9333 19.6333 37.525 16.9583 34.375 14.975C31.225 12.9917 27.7667 12 24 12C20.2333 12 16.775 12.9917 13.625 14.975C10.475 16.9583 8.06667 19.6333 6.4 23C8.06667 26.3667 10.475 29.0417 13.625 31.025C16.775 33.0083 20.2333 34 24 34Z" fill="#1A614F"/>
</g>
</svg>
