<svg width="84" height="84" viewBox="0 0 84 84" fill="none" xmlns="http://www.w3.org/2000/svg">
<path d="M71.1542 12.2C63.2958 4.3375 52.8458 0.00416667 41.7125 0C18.7708 0 0.1 18.6625 0.091667 41.6042C0.0875003 48.9375 2.00417 56.0958 5.64583 62.4042L0 83.3333L21.8042 78.1792C27.8833 81.4958 34.725 83.2417 41.6917 83.2458H41.7083C64.6458 83.2458 83.3167 64.5792 83.3292 41.6417C83.3375 30.5208 79.0125 20.0667 71.1542 12.2ZM62.075 56.475C61.2083 58.9042 56.9625 61.2458 55.0542 61.4167C53.1458 61.5917 51.3583 62.2792 42.575 58.8167C32.0042 54.65 25.3292 43.8125 24.8125 43.1208C24.2917 42.425 20.5667 37.4833 20.5667 32.3667C20.5667 27.25 23.2542 24.7333 24.2083 23.6958C25.1625 22.6542 26.2875 22.3958 26.9833 22.3958C27.675 22.3958 28.3708 22.3958 28.975 22.4208C29.7167 22.45 30.5375 22.4875 31.3167 24.2167C32.2417 26.275 34.2625 31.4167 34.5208 31.9375C34.7792 32.4583 34.9542 33.0667 34.6083 33.7583C34.2625 34.45 34.0875 34.8833 33.5708 35.4917C33.05 36.1 32.4792 36.8458 32.0125 37.3125C31.4917 37.8292 30.95 38.3958 31.5542 39.4333C32.1625 40.475 34.2458 43.8792 37.3375 46.6333C41.3125 50.175 44.6583 51.2708 45.7 51.7958C46.7417 52.3167 47.3458 52.2292 47.9542 51.5333C48.5625 50.8417 50.5542 48.5 51.2458 47.4583C51.9375 46.4167 52.6333 46.5917 53.5875 46.9375C54.5417 47.2833 59.6542 49.8 60.6917 50.3208C61.7333 50.8417 62.425 51.1 62.6833 51.5333C62.9417 51.9625 62.9417 54.0458 62.075 56.475Z" fill="white"/>
</svg>
