<svg width="20" height="14" viewBox="0 0 20 14" fill="none" xmlns="http://www.w3.org/2000/svg">
<path d="M19.5931 2.20112C19.3633 1.34385 18.6888 0.667435 17.8324 0.436633C16.2675 0.00700138 10.0069 7.58999e-06 10.0069 7.58999e-06C10.0069 7.58999e-06 3.74735 -0.00698661 2.18146 0.403661C1.34205 0.632465 0.648543 1.32387 0.416707 2.18014C0.00399882 3.74479 1.46411e-06 6.99001 1.46411e-06 6.99001C1.46411e-06 6.99001 -0.00399569 10.2512 0.405714 11.7999C0.635552 12.6561 1.31008 13.3326 2.16747 13.5634C3.74835 13.993 9.99193 14 9.99193 14C9.99193 14 16.2525 14.007 17.8174 13.5973C18.6728 13.3675 19.3503 12.6921 19.5831 11.8359C19.9969 10.2722 19.9999 7.02798 19.9999 7.02798C19.9999 7.02798 20.0198 3.76578 19.5931 2.20112ZM8.00434 9.99643L8.00934 4.00157L13.2127 7.004L8.00434 9.99643Z" fill="#1A614F"/>
</svg>
